<?xml version="1.0" encoding="utf-8"?>
<!-- Generator: Adobe Illustrator 27.3.1, SVG Export Plug-In . SVG Version: 6.00 Build 0)  -->
<svg version="1.1" id="레이어_1" xmlns="http://www.w3.org/2000/svg" xmlns:xlink="http://www.w3.org/1999/xlink" x="0px"
	 y="0px" viewBox="0 0 506.2 533.1" style="enable-background:new 0 0 506.2 533.1;" xml:space="preserve">
<style type="text/css">
	.st0{fill:#3D5448;}
</style>
<g>
	<path class="st0" d="M481.6,0h-387C81.2,0,70,11.2,70,24.6v58.2H38.1C17.4,82.9,0,99.7,0,121C0,142.2,16.8,159,38.1,159H70v69.4
		H38.1C17.4,228.5,0,245.3,0,266.6c0,21.3,16.8,38.1,38.1,38.1H70v69.4H38.1C17.4,374.1,0,390.9,0,412.2c0,20.7,16.8,38.1,38.1,38.1
		H70v58.2c0,13.4,11.2,24.6,24.6,24.6h387c13.4,0,24.6-11.2,24.6-24.6V25.8C506.2,11.2,495,0,481.6,0L481.6,0z M288.4,123.8
		c33,0,59.9,26.9,59.9,59.9c0,33-26.9,59.9-59.9,59.9c-33,0-59.9-26.9-59.9-59.9S255.4,123.8,288.4,123.8z M378,314.7l-4.5,82.3
		c-0.6,6.2-5.6,11.2-11.8,11.2H213.9c-6.2,0-11.2-5-11.8-11.2l-4.5-82.3c-1.7-28.6,16.8-53.2,42.6-61c13.4,9,29.7,14.6,47,14.6
		s33.6-5.6,47.6-14.6C361.2,261.5,379.7,286.2,378,314.7L378,314.7z"/>
</g>
</svg>
