<?xml version="1.0" encoding="utf-8"?>
<!-- Generator: Adobe Illustrator 27.3.1, SVG Export Plug-In . SVG Version: 6.00 Build 0)  -->
<svg version="1.1" id="레이어_1" xmlns="http://www.w3.org/2000/svg" xmlns:xlink="http://www.w3.org/1999/xlink" x="0px"
	 y="0px" viewBox="0 0 289.5 348.9" style="enable-background:new 0 0 289.5 348.9;" xml:space="preserve">
<style type="text/css">
	.st0{fill:#FF6464;}
</style>
<g>
	<path class="st0" d="M278.9,40.9h-81.2V25.2c0-14-11.2-25.2-25.2-25.2h-56c-14,0-25.2,11.2-25.2,25.2v15.7H10.1
		C4.5,40.9,0,45.4,0,51C0,56.6,4.5,61,10.1,61h16.8v244.2c0,24.1,19.6,43.7,43.7,43.7H219c24.1,0,43.7-19.6,43.7-43.7V60.5h16.8
		c5.6,0,10.1-4.5,10.1-10.1C289.5,44.8,284.5,40.9,278.9,40.9L278.9,40.9z M110.9,25.2c0-3.4,2.8-5.6,5.6-5.6l56,0
		c3.4,0,5.6,2.8,5.6,5.6v15.7l-67.2,0L110.9,25.2z M242.5,304.6c0,12.9-10.6,23.5-23.5,23.5H70c-12.9,0-23.5-10.6-23.5-23.5V60.5
		h196V304.6z"/>
	<path class="st0" d="M144.5,288.4c5.6,0,9.5-4.5,9.5-10.1v-168c0-5.6-4.5-10.1-9.5-10.1s-10.1,4.5-10.1,10.1v168
		C134.4,283.9,138.9,288.4,144.5,288.4z"/>
	<path class="st0" d="M200.5,288.4c5.6,0,10.1-4.5,10.1-10.1v-168c0-5.6-4.5-10.1-10.1-10.1c-5.6,0-10.1,4.5-10.1,10.1v168
		C191,283.9,194.9,288.4,200.5,288.4z"/>
	<path class="st0" d="M88.5,288.4c5.6,0,10.1-4.5,10.1-10.1v-168c0-5.6-4.5-10.1-10.1-10.1c-5.6,0-10.1,4.5-10.1,10.1v168
		C78.4,283.9,82.9,288.4,88.5,288.4z"/>
</g>
</svg>
