<?xml version="1.0" encoding="utf-8"?>
<!-- Generator: Adobe Illustrator 27.3.1, SVG Export Plug-In . SVG Version: 6.00 Build 0)  -->
<svg version="1.1" id="레이어_1" xmlns="http://www.w3.org/2000/svg" xmlns:xlink="http://www.w3.org/1999/xlink" x="0px"
	 y="0px" viewBox="0 0 490 456" style="enable-background:new 0 0 490 456;" xml:space="preserve">
<style type="text/css">
	.st0{fill:#3D5448;}
</style>
<g>
	<path class="st0" d="M245,0c-34.7,0-68,13.8-92.6,38.4C127.9,62.9,114.1,96.2,114,131c0,56.4,86.5,169.8,131,222c44.4-52.2,131-165.6,131-222
		c0-34.7-13.8-68-38.4-92.6C313,13.8,279.7,0,245,0L245,0z M245,196.9L245,196.9c-18.5,0-36.2-7.4-49.3-20.4
		c-13.1-13.1-20.4-30.8-20.4-49.3c0-18.5,7.3-36.2,20.4-49.3c13.1-13.1,30.8-20.4,49.3-20.4c18.5,0,36.2,7.3,49.3,20.4
		c13.1,13.1,20.4,30.8,20.4,49.3c0,18.5-7.4,36.2-20.4,49.3C281.2,189.6,263.5,196.9,245,196.9L245,196.9z"/>
	<path class="st0" d="M286.7,127.2c0,23.1-18.7,41.7-41.7,41.7s-41.7-18.7-41.7-41.7c0-23.1,18.7-41.7,41.7-41.7S286.7,104.1,286.7,127.2"/>
	<path class="st0" d="M485.3,456H4.7c-1.5,0-2.8-0.7-3.7-1.9c-0.9-1.2-1.2-2.7-0.8-4.1l46.4-162.8c0.6-2,2.4-3.4,4.5-3.4h105.3
		c24.3,34.6,50.4,67.9,78.2,99.7c2.6,3,6.5,4.7,10.5,4.7s7.8-1.7,10.5-4.7c27.8-31.8,53.9-65.1,78.2-99.7h105.2
		c2.1,0,3.9,1.4,4.5,3.4l46.4,162.8c0.4,1.4,0.1,2.9-0.8,4.1C488.2,455.4,486.8,456,485.3,456L485.3,456z"/>
</g>
</svg>
