<?xml version="1.0" encoding="utf-8"?>
<!-- Generator: Adobe Illustrator 27.3.1, SVG Export Plug-In . SVG Version: 6.00 Build 0)  -->
<svg version="1.1" id="레이어_1" xmlns="http://www.w3.org/2000/svg" xmlns:xlink="http://www.w3.org/1999/xlink" x="0px"
	 y="0px" viewBox="0 0 466.7 466.7" style="enable-background:new 0 0 466.7 466.7;" xml:space="preserve">
<style type="text/css">
	.st0{fill:#774980;}
</style>
<g>
	<path class="st0" d="M420,0H46.7c-12.4,0-24.2,4.9-33,13.7C4.9,22.4,0,34.3,0,46.7v420l93.3-93.3H420c12.4,0,24.2-4.9,33-13.7
		c8.8-8.8,13.7-20.6,13.7-33v-280c0-12.4-4.9-24.2-13.7-33C444.2,4.9,432.4,0,420,0L420,0z M303.3,303.3h-210v-46.7h210V303.3z
		 M373.3,210h-280v-46.7h280V210z M373.3,116.7l-280,0V70h280V116.7z"/>
</g>
</svg>
