<?xml version="1.0" encoding="utf-8"?>
<!-- Generator: Adobe Illustrator 27.3.1, SVG Export Plug-In . SVG Version: 6.00 Build 0)  -->
<svg version="1.1" id="레이어_1" xmlns="http://www.w3.org/2000/svg" xmlns:xlink="http://www.w3.org/1999/xlink" x="0px"
	 y="0px" viewBox="0 0 520.8 520.8" style="enable-background:new 0 0 520.8 520.8;" xml:space="preserve">
<style type="text/css">
	.st0{fill:#fff;}
</style>
<g>
	<path class="st0" d="M8.4,520.8c-2.2,0-4.3-0.9-5.9-2.5c-2.1-2.1-3-5.2-2.2-8.1L47,335.7c0.4-1.4,1.1-2.7,2.2-3.8l303-303
		C370.9,10.3,395.7,0,422.1,0c26.4,0,51.2,10.3,69.8,28.9c18.7,18.6,28.9,43.4,28.9,69.8s-10.3,51.2-28.9,69.8l-303,303
		c-1,1-2.3,1.8-3.8,2.2L10.6,520.5C9.8,520.7,9.1,520.8,8.4,520.8L8.4,520.8z M62.7,342.2L20.3,500.5l158.3-42.4L480,156.7
		c15.5-15.5,24-36.1,24-57.9c0-21.9-8.5-42.5-24-57.9c-15.5-15.5-36.1-24-57.9-24c-21.9,0-42.5,8.5-57.9,24L62.7,342.2z
		 M182.9,465.6L182.9,465.6L182.9,465.6z"/>
	<path class="st0" d="M182.9,474c-0.1,0-0.2,0-0.4,0c-4.6-0.2-8.2-4.1-8-8.8l2.3-52.6l-37.4-1.6c-4.5-0.2-8-3.9-8-8.4v-49.3l-77-7.1
		c-4.6-0.4-8-4.5-7.6-9.1c0.4-4.6,4.5-8,9.1-7.6l84.6,7.8c4.3,0.4,7.6,4,7.6,8.4v49l37.7,1.6c4.6,0.2,8.2,4.1,8,8.8l-2.6,61
		C191.1,470.5,187.4,474,182.9,474L182.9,474z"/>
	<path class="st0" d="M460.5,196.5c-2.1,0-4.3-0.8-5.9-2.5L326.8,66.2c-3.3-3.3-3.3-8.6,0-11.9s8.6-3.3,11.9,0l127.8,127.8
		c3.3,3.3,3.3,8.6,0,11.9C464.8,195.6,462.6,196.5,460.5,196.5L460.5,196.5z"/>
	<path class="st0" d="M414.3,242.7c-2.1,0-4.3-0.8-5.9-2.5L280.6,112.5c-3.3-3.3-3.3-8.6,0-11.9s8.6-3.3,11.9,0l127.8,127.8
		c3.3,3.3,3.3,8.6,0,11.9C418.6,241.9,416.4,242.7,414.3,242.7L414.3,242.7z"/>
</g>
</svg>
