<?xml version="1.0" encoding="utf-8"?>
<!-- Generator: Adobe Illustrator 27.3.1, SVG Export Plug-In . SVG Version: 6.00 Build 0)  -->
<svg version="1.1" id="레이어_1" xmlns="http://www.w3.org/2000/svg" xmlns:xlink="http://www.w3.org/1999/xlink" x="0px"
	 y="0px" viewBox="0 0 443.1 443.2" style="enable-background:new 0 0 443.1 443.2;" xml:space="preserve">
<style type="text/css">
	.st0{fill:#774980;}
</style>
<g>
	<path class="st0" d="M100.8,7.2l67.3,89.1c8.4,10.1,6.7,25.2,0,33.6l-45.4,47.1c-21.9,18.5,122.8,164.8,142.9,144.6l45.4-45.4
		c10.1-10.1,25.2-10.1,35.3-1.7l87.4,67.3c11.8,8.4,11.8,20.2,3.4,30.3L383.4,426c-62.2,60.5-213.6-53.8-260.7-100.9
		C75.6,274.6-43.8,121.6,16.8,59.3L70.6,5.5C79-2.9,94.1-1.2,100.8,7.2L100.8,7.2z"/>
</g>
</svg>
