<?xml version="1.0" encoding="utf-8"?>
<!-- Generator: Adobe Illustrator 27.3.1, SVG Export Plug-In . SVG Version: 6.00 Build 0)  -->
<svg version="1.1" id="레이어_1" xmlns="http://www.w3.org/2000/svg" xmlns:xlink="http://www.w3.org/1999/xlink" x="0px"
	 y="0px" viewBox="0 0 507.5 507.5" style="enable-background:new 0 0 507.5 507.5;" xml:space="preserve">
<style type="text/css">
	.st0{fill:#3D5448;}
</style>
<g>
	<path class="st0" d="M498.8,0H8.8C3.9,0,0,3.9,0,8.8v490c0,2.3,0.9,4.5,2.6,6.2s3.9,2.6,6.2,2.6h490c2.3,0,4.5-0.9,6.2-2.6s2.6-3.9,2.6-6.2V8.8
		c0-2.3-0.9-4.5-2.6-6.2S501.1,0,498.8,0z M441.8,375.3H65.5V65.7h376.2V375.3z"/>
	<path class="st0" d="M247.5,327.2c1.6,1.7,3.9,2.6,6.2,2.6s4.6-0.9,6.2-2.6l99.9-99.8c16.6-17.3,22.8-42.1,16.5-65.2s-24.4-41.2-47.5-47.5
		c-23.1-6.4-47.9-0.1-65.2,16.5c-2.7,2.5-6.2,3.9-9.9,3.9s-7.2-1.4-9.9-3.9c-17.3-16.6-42.1-22.8-65.2-16.5
		c-23.1,6.4-41.2,24.4-47.5,47.5s-0.1,47.9,16.5,65.2L247.5,327.2z"/>
</g>
</svg>
