<?xml version="1.0" encoding="utf-8"?>
<!-- Generator: Adobe Illustrator 27.3.1, SVG Export Plug-In . SVG Version: 6.00 Build 0)  -->
<svg version="1.1" id="레이어_1" xmlns="http://www.w3.org/2000/svg" xmlns:xlink="http://www.w3.org/1999/xlink" x="0px"
	 y="0px" viewBox="0 0 532 532" style="enable-background:new 0 0 532 532;" xml:space="preserve">
<style type="text/css">
	.st0{fill:#774980;}
</style>
<g>
	<path class="st0" d="M323.1,322l12.9-50.4h-27.4L323.1,322z"/>
	<path class="st0" d="M266,0C119.3,0,0,119.3,0,266s119.3,266,266,266s266-119.3,266-266S412.7,0,266,0z M426.2,271.6h-45.9l-33.6,131.6h-44.2
		l-36.4-126l-36.4,126.6h-44.2l-33.6-132.2h-45.9v-34.2h37.5l-19-75.6H168l19.6,75.6h45.9l12.3-43.1h40.9l12.3,43.1H345l19-75.6
		h43.7l-19,75.6h37.5L426.2,271.6z"/>
	<path class="st0" d="M208.9,322l14.6-50.4H196L208.9,322z"/>
</g>
</svg>
